<svg width="37" height="37" viewBox="0 0 37 37" fill="none" xmlns="http://www.w3.org/2000/svg">
<circle cx="18.3268" cy="18.2174" r="17.7174" stroke="#F2F2F2"/>
<path fill-rule="evenodd" clip-rule="evenodd" d="M18.7301 4.38159C11.468 4.38159 5.58594 10.2636 5.58594 17.5258C5.58594 23.3421 9.34847 28.2548 14.5733 29.9964C15.2305 30.1114 15.4769 29.717 15.4769 29.372C15.4769 29.0598 15.4605 28.0247 15.4605 26.9239C12.158 27.5318 11.3037 26.1188 11.0408 25.3795C10.8929 25.0016 10.2521 23.835 9.6935 23.5228C9.23345 23.2764 8.57624 22.6685 9.67707 22.652C10.7122 22.6356 11.4515 23.605 11.698 23.9993C12.881 25.9874 14.7704 25.4287 15.5262 25.0837C15.6413 24.2293 15.9863 23.6543 16.3642 23.3257C13.4396 22.9971 10.3836 21.8634 10.3836 16.8357C10.3836 15.4063 10.8929 14.2233 11.7309 13.3032C11.5994 12.9746 11.1394 11.6273 11.8623 9.82001C11.8623 9.82001 12.9631 9.47497 15.4769 11.1673C16.5285 10.8715 17.6457 10.7237 18.763 10.7237C19.8803 10.7237 20.9975 10.8715 22.049 11.1673C24.5629 9.45854 25.6637 9.82001 25.6637 9.82001C26.3866 11.6273 25.9266 12.9746 25.7951 13.3032C26.6331 14.2233 27.1424 15.3899 27.1424 16.8357C27.1424 21.8798 24.07 22.9971 21.1454 23.3257C21.6219 23.7364 22.0326 24.5251 22.0326 25.7574C22.0326 27.5154 22.0162 28.9284 22.0162 29.372C22.0162 29.717 22.2626 30.1278 22.9199 29.9964C25.5292 29.1154 27.7965 27.4384 29.4029 25.2013C31.0092 22.9643 31.8736 20.2798 31.8743 17.5258C31.8743 10.2636 25.9923 4.38159 18.7301 4.38159Z" fill="#F2F2F2"/>
</svg>
