<svg width="37" height="37" viewBox="0 0 37 37" fill="none" xmlns="http://www.w3.org/2000/svg">
<circle cx="18.2174" cy="18.2174" r="17.7174" stroke="#F2F2F2"/>
<g clip-path="url(#clip0_22_495)">
<path d="M20.7484 15.9922C20.1887 15.9903 19.6342 16.0987 19.1164 16.3114C18.5987 16.524 18.128 16.8366 17.7312 17.2314C17.3345 17.6261 17.0194 18.0952 16.8041 18.6119C16.5888 19.1285 16.4775 19.6825 16.4766 20.2422V24.5359C16.4766 24.7102 16.5458 24.8774 16.6691 25.0007C16.7923 25.1239 16.9595 25.1932 17.1338 25.1932H18.6673C18.8416 25.1932 19.0087 25.1239 19.132 25.0007C19.2552 24.8774 19.3245 24.7102 19.3245 24.5359V20.2422C19.3243 20.0431 19.3661 19.8463 19.4472 19.6644C19.5282 19.4826 19.6467 19.3199 19.7948 19.1869C19.9429 19.054 20.1174 18.9537 20.3069 18.8927C20.4964 18.8317 20.6966 18.8113 20.8945 18.8328C21.2494 18.8775 21.5755 19.0509 21.8111 19.3201C22.0466 19.5893 22.1752 19.9356 22.1724 20.2933V24.5359C22.1724 24.7102 22.2416 24.8774 22.3649 25.0007C22.4881 25.1239 22.6553 25.1932 22.8296 25.1932H24.3631C24.5374 25.1932 24.7046 25.1239 24.8278 25.0007C24.9511 24.8774 25.0203 24.7102 25.0203 24.5359V20.2422C25.0193 19.6825 24.908 19.1285 24.6927 18.6119C24.4775 18.0952 24.1624 17.6261 23.7656 17.2314C23.3689 16.8366 22.8981 16.524 22.3804 16.3114C21.8627 16.0987 21.3081 15.9903 20.7484 15.9922Z" fill="#F2F2F2"/>
<path d="M14.5048 16.6494H12.5332C12.1702 16.6494 11.876 16.9437 11.876 17.3066V24.5359C11.876 24.8989 12.1702 25.1931 12.5332 25.1931H14.5048C14.8678 25.1931 15.162 24.8989 15.162 24.5359V17.3066C15.162 16.9437 14.8678 16.6494 14.5048 16.6494Z" fill="#F2F2F2"/>
<path d="M13.519 15.3349C14.4264 15.3349 15.162 14.5993 15.162 13.6919C15.162 12.7844 14.4264 12.0488 13.519 12.0488C12.6116 12.0488 11.876 12.7844 11.876 13.6919C11.876 14.5993 12.6116 15.3349 13.519 15.3349Z" fill="#F2F2F2"/>
</g>
<defs>
<clipPath id="clip0_22_495">
<rect width="17.5256" height="17.5256" fill="white" transform="translate(9.68555 9.85815)"/>
</clipPath>
</defs>
</svg>
