<svg width="37" height="37" viewBox="0 0 37 37" fill="none" xmlns="http://www.w3.org/2000/svg">
<path d="M36.2297 18.2174C36.2297 28.0025 28.2974 35.9348 18.5123 35.9348C8.72727 35.9348 0.794922 28.0025 0.794922 18.2174C0.794922 8.43235 8.72727 0.5 18.5123 0.5C28.2974 0.5 36.2297 8.43235 36.2297 18.2174Z" stroke="#F2F2F2"/>
<path fill-rule="evenodd" clip-rule="evenodd" d="M23.6523 19.4825C23.4075 19.3601 22.2073 18.7703 21.9839 18.6881C21.7604 18.6068 21.5977 18.5665 21.4343 18.8113C21.2716 19.0545 20.8042 19.6049 20.662 19.7676C20.5191 19.9311 20.377 19.9508 20.133 19.8292C19.889 19.706 19.102 19.4488 18.1696 18.6175C17.4442 17.9701 16.9537 17.1708 16.8116 16.926C16.6695 16.682 16.796 16.5497 16.9184 16.4281C17.0285 16.3189 17.1624 16.1431 17.2848 16.0009C17.4072 15.858 17.4475 15.7561 17.5288 15.5926C17.6109 15.43 17.5699 15.2879 17.5083 15.1655C17.4475 15.0431 16.9595 13.8412 16.7557 13.3524C16.5578 12.8767 16.3565 12.9416 16.207 12.9334C16.064 12.9268 15.9014 12.9252 15.7387 12.9252C15.5761 12.9252 15.3115 12.986 15.0881 13.2308C14.8638 13.4748 14.2337 14.0655 14.2337 15.2673C14.2337 16.4684 15.1078 17.6292 15.2302 17.7927C15.3526 17.9553 16.9513 20.4215 19.4002 21.4788C19.9835 21.7302 20.4378 21.8805 20.7918 21.9922C21.3768 22.1787 21.9091 22.1524 22.3297 22.0892C22.798 22.0193 23.7739 21.4985 23.9777 20.9284C24.1806 20.3582 24.1806 19.8694 24.1198 19.7676C24.059 19.6657 23.8963 19.6049 23.6515 19.4825H23.6523ZM19.1981 25.5642H19.1948C17.7403 25.5644 16.3124 25.1734 15.061 24.4321L14.7652 24.2563L11.6911 25.063L12.5118 22.0662L12.3188 21.7589C11.5056 20.4645 11.0752 18.9664 11.0775 17.4378C11.0791 12.9605 14.7217 9.31793 19.2014 9.31793C21.3702 9.31793 23.4092 10.1641 24.9421 11.6987C25.6982 12.4517 26.2975 13.3471 26.7053 14.3332C27.1131 15.3193 27.3213 16.3764 27.3179 17.4435C27.3163 21.9208 23.6737 25.5642 19.1981 25.5642ZM26.1087 10.5329C25.2035 9.62183 24.1265 8.8994 22.9402 8.40753C21.7538 7.91566 20.4816 7.66413 19.1973 7.66751C13.8131 7.66751 9.4295 12.0503 9.42785 17.4369C9.42536 19.1512 9.87506 20.8359 10.7316 22.3208L9.3457 27.3838L14.5245 26.025C15.9571 26.8056 17.5625 27.2146 19.194 27.2146H19.1981C24.5823 27.2146 28.9659 22.8318 28.9675 17.4443C28.9715 16.1605 28.7209 14.8887 28.2302 13.7024C27.7395 12.5161 27.0184 11.4388 26.1087 10.5329Z" fill="#F2F2F2"/>
</svg>
